# xmcd
#
# Track frame offsets:
#	150
#	6410
#	23168
#	35290
#	50543
#	57810
#	67728
#	89435
#	101793
#	116985
#	128895
#	133015
#	153415
#	172518
#	186480
#	194998
#	204450
#	216955
#	240738
#	260120
#	276725
#	287325
#	299260
#	313970
#	331515
#
# Disc length: 4706 seconds
#
# Revision: 1
# Processed by: cddbd v1.5.1PL0 Copyright (c) Steve Scherf et al.
# Submitted via: CDex 1.50Beta5
#
DISCID=85126019
DTITLE=さまざま - クラシック・オン・TV
DYEAR=1900
DGENRE=
TTITLE0=R.シュトラウス/ツァラトゥストラはかく語りき
TTITLE1=J.シュトラウスII/美しく青きドナウ
TTITLE2=ドヴォルザーク/「新世界」より:ラルゴ
TTITLE3=マスカーニ/「カヴァレリア・ルスティカーナ」
TTITLE4=ムソルグスキー/禿山の一夜
TTITLE5=チャイコフスキー/弦楽セレナード第一楽章
TTITLE6=チャイコフスキー/「悲愴」第一楽章
TTITLE7=チャイコフスキー/くるみわり人形
TTITLE8=ロッシーニ/ウィリアム=テル序曲
TTITLE9=ビゼー/「カルメン」闘牛士の歌
TTITLE10=ショパン/24ノ前奏曲第7番
TTITLE11=ショパン/幻想即興曲作品66
TTITLE12=ガーシュウィン/ラプソディ・イン・ブルー
TTITLE13=ベートーヴェン/「運命」第1楽章
TTITLE14=ベートーヴェン/交響曲第7番第4楽章
TTITLE15=ハイドン/「驚愕」第2楽章
TTITLE16=シューベルト/アヴェ・マリア
TTITLE17=マスネ/タイスの瞑想曲
TTITLE18=ヘンデル/ラルゴ
TTITLE19=ラヴェル/ボレロ
TTITLE20=ブラームス/ハンガリー舞曲第5番
TTITLE21=シューマン/トロイメライ
TTITLE22=J.S.バッハ/G線上のアリア
TTITLE23=アルビノーニ/アダージョ
TTITLE24=パッヘルベル/カノン
EXTD=
EXTT0=
EXTT1=
EXTT2=
EXTT3=
EXTT4=
EXTT5=
EXTT6=
EXTT7=
EXTT8=
EXTT9=
EXTT10=
EXTT11=
EXTT12=
EXTT13=
EXTT14=
EXTT15=
EXTT16=
EXTT17=
EXTT18=
EXTT19=
EXTT20=
EXTT21=
EXTT22=
EXTT23=
EXTT24=
PLAYORDER=
